<svg width="20" height="16" viewBox="0 0 20 16" fill="none" xmlns="http://www.w3.org/2000/svg">
<path fill-rule="evenodd" clip-rule="evenodd" d="M5.23237 0.566276C5.54479 0.875999 5.54479 1.37817 5.23237 1.68789L3.39805 3.5064H13.2C16.5873 3.5064 19.3334 6.22871 19.3334 9.58686C19.3334 12.945 16.5873 15.6673 13.2 15.6673H5.73336C5.29153 15.6673 4.93336 15.3122 4.93336 14.8742C4.93336 14.4362 5.29153 14.0811 5.73336 14.0811H13.2C15.7037 14.0811 17.7334 12.069 17.7334 9.58686C17.7334 7.10475 15.7037 5.0926 13.2 5.0926H3.39805L5.23237 6.91111C5.54479 7.22083 5.54479 7.72296 5.23237 8.03269C4.91995 8.34242 4.41341 8.34242 4.101 8.03269L0.900999 4.86031C0.588583 4.55059 0.588583 4.04841 0.900999 3.73869L4.101 0.566276C4.41341 0.256554 4.91995 0.256554 5.23237 0.566276Z" fill="white"/>
</svg>
