<svg width="14" height="15" viewBox="0 0 14 15" fill="none" xmlns="http://www.w3.org/2000/svg">
<path d="M7.75444 0.679109C7.54367 0.500421 7.27632 0.402344 7 0.402344C6.72368 0.402344 6.45633 0.500421 6.24555 0.679109L0.412222 5.62811C0.283053 5.73762 0.179271 5.87393 0.108086 6.02758C0.0369006 6.18124 1.796e-05 6.34854 0 6.51789V13.8313C0 14.1407 0.122916 14.4375 0.341709 14.6563C0.560501 14.8751 0.857247 14.998 1.16667 14.998H4.86111C5.01582 14.998 5.16419 14.9365 5.27359 14.8271C5.38299 14.7177 5.44444 14.5694 5.44444 14.4147V9.55355H8.55556V14.4147C8.55556 14.7367 8.81689 14.998 9.13889 14.998H12.8333C13.1428 14.998 13.4395 14.8751 13.6583 14.6563C13.8771 14.4375 14 14.1407 14 13.8313V6.51789C14 6.34854 13.9631 6.18124 13.8919 6.02758C13.8207 5.87393 13.7169 5.73762 13.5878 5.62811L7.75444 0.679109Z" fill="white"/>
</svg>
