<svg width="23" height="42" viewBox="0 0 23 42" fill="none" xmlns="http://www.w3.org/2000/svg">
<path d="M11.026 0C6.75718 0 3.28125 3.44443 3.28125 7.68171V23.8485C3.28125 28.0858 6.75718 31.5302 11.026 31.5302C15.3 31.5302 18.7707 28.0858 18.7707 23.8485V7.68171C18.7707 3.44443 15.3 0 11.026 0Z" fill="black"/>
<path d="M16.4768 40.0048H5.57648C5.01991 40.0048 4.56836 40.4511 4.56836 41.0024C4.56836 41.5537 5.01991 42 5.57648 42H16.4821C17.0387 42 17.4902 41.5537 17.4902 41.0024C17.4902 40.4511 17.0334 40.0048 16.4768 40.0048Z" fill="black"/>
<path d="M21.0446 21.6222C20.4881 21.6222 20.0365 22.0685 20.0365 22.6198V24.0165C20.0365 29.0204 15.9935 33.0949 11.0264 33.0949C6.05926 33.0949 2.01625 29.0256 2.01625 24.0165V22.6198C2.01625 22.0685 1.5647 21.6222 1.00813 21.6222C0.451557 21.6222 0 22.0685 0 22.6198V24.2003C0 24.2213 0.00525078 24.2423 0.00525078 24.2633C0.126016 29.9182 4.48931 34.5388 10.0183 35.0481V37.9307C10.0183 38.4821 10.4698 38.9284 11.0264 38.9284C11.5829 38.9284 12.0345 38.4821 12.0345 37.9307V35.0481C17.5634 34.5441 21.9215 29.9182 22.0475 24.2633C22.0475 24.2423 22.0528 24.2213 22.0528 24.2003V22.6198C22.0528 22.0685 21.6012 21.6222 21.0446 21.6222Z" fill="black"/>
</svg>
