<svg width="53" height="54" viewBox="0 0 53 54" fill="none" xmlns="http://www.w3.org/2000/svg">
<path d="M26.5 1.78418C31.4136 1.78418 36.2169 3.24124 40.3025 5.9711C44.388 8.70097 47.5723 12.581 49.4526 17.1206C51.333 21.6602 51.825 26.6555 50.8664 31.4747C49.9078 36.2939 47.5416 40.7206 44.0672 44.1951C40.5927 47.6696 36.166 50.0357 31.3468 50.9943C26.5276 51.9529 21.5323 51.4609 16.9927 49.5805C12.4531 47.7002 8.57305 44.5159 5.84319 40.4304C3.11332 36.3448 1.65626 31.5415 1.65626 26.6279C1.66503 20.0416 4.2853 13.7276 8.94251 9.07042C13.5997 4.41322 19.9137 1.79294 26.5 1.78418ZM26.5 0.12793C21.2588 0.12793 16.1353 1.68213 11.7774 4.59398C7.4195 7.50584 4.02293 11.6446 2.0172 16.4868C0.0114819 21.3291 -0.513306 26.6573 0.509202 31.7978C1.53171 36.9383 4.05559 41.6602 7.76168 45.3662C11.4678 49.0723 16.1896 51.5962 21.3301 52.6187C26.4706 53.6412 31.7989 53.1164 36.6411 51.1107C41.4834 49.105 45.6221 45.7084 48.5339 41.3505C51.4458 36.9926 53 31.8691 53 26.6279C53 19.5997 50.208 12.8593 45.2383 7.8896C40.2686 2.91989 33.5282 0.12793 26.5 0.12793Z" fill="white" fill-opacity="0.5"/>
<g opacity="0.5">
<path d="M22.3594 19.1748C21.9201 19.1748 21.4988 19.3493 21.1882 19.6599C20.8776 19.9705 20.7031 20.3918 20.7031 20.8311L20.7031 32.4248C20.7031 32.8641 20.8776 33.2853 21.1882 33.5959C21.4988 33.9066 21.9201 34.081 22.3594 34.081C22.7986 34.081 23.2199 33.9066 23.5305 33.5959C23.8411 33.2853 24.0156 32.8641 24.0156 32.4248L24.0156 20.8311C24.0156 20.3918 23.8411 19.9705 23.5305 19.6599C23.2199 19.3493 22.7986 19.1748 22.3594 19.1748Z" fill="white"/>
<path d="M30.6406 19.1748C30.2014 19.1748 29.7801 19.3493 29.4695 19.6599C29.1589 19.9705 28.9844 20.3918 28.9844 20.8311L28.9844 32.4248C28.9844 32.8641 29.1589 33.2853 29.4695 33.5959C29.7801 33.9066 30.2014 34.081 30.6406 34.081C31.0799 34.081 31.5012 33.9066 31.8118 33.5959C32.1224 33.2853 32.2969 32.8641 32.2969 32.4248L32.2969 20.8311C32.2969 20.3918 32.1224 19.9705 31.8118 19.6599C31.5012 19.3493 31.0799 19.1748 30.6406 19.1748Z" fill="white"/>
</g>
</svg>
