<svg width="38" height="38" viewBox="0 0 38 38" fill="none" xmlns="http://www.w3.org/2000/svg">
<path d="M0.0654639 36.4477C-0.0829651 36.8699 0.0258836 37.3416 0.34253 37.6582C0.659177 37.9749 1.13085 38.0837 1.55306 37.9353L4.34685 36.9457L1.05504 33.6539L0.0654639 36.4477Z" fill="black"/>
<path d="M37.0085 4.6475L33.3538 0.992848C32.7205 0.356245 31.8597 0 30.9658 0C30.0686 0 29.2077 0.356237 28.5744 0.992848L25.6289 3.97131L34.03 12.3724L37.0118 9.40056H37.0085C38.3147 8.08447 38.3147 5.96359 37.0085 4.6475Z" fill="black"/>
<path d="M4.22121 25.3683C3.96723 25.6256 3.77262 25.9323 3.64728 26.272L2.34766 29.9795L8.02103 35.6528L11.7285 34.3532C12.0682 34.2279 12.3749 34.0333 12.6322 33.7793L31.5451 14.8664L23.1011 6.42236L4.22121 25.3683Z" fill="black"/>
</svg>
