<svg width="102" height="102" viewBox="0 0 102 102" fill="none" xmlns="http://www.w3.org/2000/svg">
<g filter="url(#filter0_d_215_2645)">
<circle cx="51" cy="51" r="29" stroke="white" stroke-width="2" shape-rendering="crispEdges"/>
</g>
<path fill-rule="evenodd" clip-rule="evenodd" d="M52.2148 40.2881C52.2148 39.5767 51.6381 39 50.9267 39C50.2153 39 49.6386 39.5767 49.6386 40.2881V49.6406H40.2881C39.5767 49.6406 39 50.2173 39 50.9288C39 51.6402 39.5767 52.2169 40.2881 52.2169H49.6386V60.9032C49.6386 61.6147 50.2153 62.1914 50.9267 62.1914C51.6381 62.1914 52.2148 61.6147 52.2148 60.9032V52.2169H60.9032C61.6147 52.2169 62.1914 51.6402 62.1914 50.9288C62.1914 50.2173 61.6147 49.6406 60.9032 49.6406H52.2148V40.2881Z" fill="white"/>
<defs>
<filter id="filter0_d_215_2645" x="0" y="0" width="102" height="102" filterUnits="userSpaceOnUse" color-interpolation-filters="sRGB">
<feFlood flood-opacity="0" result="BackgroundImageFix"/>
<feColorMatrix in="SourceAlpha" type="matrix" values="0 0 0 0 0 0 0 0 0 0 0 0 0 0 0 0 0 0 127 0" result="hardAlpha"/>
<feMorphology radius="1" operator="dilate" in="SourceAlpha" result="effect1_dropShadow_215_2645"/>
<feOffset/>
<feGaussianBlur stdDeviation="10"/>
<feComposite in2="hardAlpha" operator="out"/>
<feColorMatrix type="matrix" values="0 0 0 0 0 0 0 0 0 0 0 0 0 0 0 0 0 0 0.15 0"/>
<feBlend mode="normal" in2="BackgroundImageFix" result="effect1_dropShadow_215_2645"/>
<feBlend mode="normal" in="SourceGraphic" in2="effect1_dropShadow_215_2645" result="shape"/>
</filter>
</defs>
</svg>
