<svg width="80" height="80" viewBox="0 0 80 80" fill="none" xmlns="http://www.w3.org/2000/svg">
<path d="M0 40C0 10.9091 10.9091 0 40 0C69.0909 0 80 10.9091 80 40C80 69.0909 69.0909 80 40 80C10.9091 80 0 69.0909 0 40Z" fill="#0C967C"/>
<path d="M42.8472 19.1553H37.1515C36.8713 21.6905 34.7219 23.6623 32.112 23.6623C29.5022 23.6623 27.3528 21.6905 27.0726 19.1553H23.6613C21.1722 19.1553 19.1543 21.1731 19.1543 23.6623V55.2116C19.1543 57.7008 21.1722 59.7187 23.6613 59.7187H55.2106C57.6998 59.7187 59.7177 57.7008 59.7177 55.2116V23.6623C59.7177 21.1731 57.6998 19.1553 55.2106 19.1553H52.9262C52.6459 21.6905 50.4966 23.6623 47.8867 23.6623C45.2768 23.6623 43.1275 21.6905 42.8472 19.1553Z" fill="white"/>
<path d="M26.1297 48.1829C26.1297 46.6532 26.4906 45.3384 27.2125 44.2384C27.9516 43.1212 29.0172 42.1329 30.4094 41.2735L32.0852 40.2422C32.9446 39.7094 33.6149 39.2368 34.0961 38.8243C34.5774 38.4118 34.9125 38.0079 35.1016 37.6125C35.3079 37.2172 35.411 36.7875 35.411 36.3235C35.411 35.55 35.1532 34.9399 34.6375 34.493C34.1391 34.0461 33.4344 33.8227 32.5235 33.8227C30.6328 33.8227 29.2836 34.8711 28.4758 36.968L25.8203 35.6789C26.4047 34.1149 27.2813 32.9289 28.45 32.1211C29.6188 31.2961 30.9938 30.8836 32.575 30.8836C33.7953 30.8836 34.861 31.1071 35.7719 31.5539C36.6829 31.9836 37.3876 32.6024 37.886 33.4102C38.3844 34.218 38.6336 35.1805 38.6336 36.2977C38.6336 37.1399 38.4876 37.9047 38.1954 38.5922C37.9032 39.2626 37.4219 39.9243 36.7516 40.5774C36.0813 41.2133 35.1789 41.8923 34.0446 42.6141L32.3688 43.6454C31.4063 44.247 30.7617 44.7626 30.4352 45.1923C30.1086 45.622 29.9196 46.1118 29.868 46.6618H38.8399V49.5493H26.1297V48.1829Z" fill="#035F54"/>
<path d="M41.2072 44.4962C41.2072 43.4993 41.4907 42.5969 42.0579 41.7891C42.6251 40.9813 43.4158 40.4399 44.4298 40.1649C43.5876 39.7696 42.9345 39.2282 42.4704 38.5407C42.0236 37.8532 41.8001 37.054 41.8001 36.143C41.8001 35.0774 42.0493 34.1578 42.5478 33.3844C43.0634 32.5938 43.7853 31.9836 44.7134 31.5539C45.6415 31.1071 46.7244 30.8836 47.9619 30.8836C49.1994 30.8836 50.2736 31.1071 51.1845 31.5539C52.1127 31.9836 52.8259 32.5938 53.3244 33.3844C53.84 34.1578 54.0978 35.0774 54.0978 36.143C54.0978 37.054 53.8658 37.8532 53.4017 38.5407C52.9549 39.2282 52.3103 39.7782 51.4681 40.1907C52.465 40.4485 53.247 40.9813 53.8142 41.7891C54.3986 42.5798 54.6908 43.4821 54.6908 44.4962C54.6908 45.579 54.4072 46.5243 53.84 47.3321C53.29 48.1399 52.508 48.7673 51.4939 49.2142C50.497 49.661 49.3197 49.8845 47.9619 49.8845C46.6041 49.8845 45.4181 49.661 44.404 49.2142C43.39 48.7673 42.5993 48.1399 42.0322 47.3321C41.4822 46.5243 41.2072 45.579 41.2072 44.4962ZM44.404 44.3415C44.404 45.2009 44.7306 45.8798 45.3837 46.3782C46.054 46.8767 46.9134 47.1259 47.9619 47.1259C49.0103 47.1259 49.8611 46.8767 50.5142 46.3782C51.1673 45.8798 51.4939 45.2009 51.4939 44.3415C51.4939 43.4305 51.1673 42.7259 50.5142 42.2274C49.8783 41.7118 49.0275 41.454 47.9619 41.454C46.8791 41.454 46.0111 41.7118 45.3579 42.2274C44.722 42.7259 44.404 43.4305 44.404 44.3415ZM44.8165 36.2719C44.8165 37.0969 45.1001 37.7501 45.6673 38.2313C46.2517 38.6954 47.0166 38.9274 47.9619 38.9274C48.89 38.9274 49.6377 38.6954 50.2048 38.2313C50.7892 37.7501 51.0814 37.0969 51.0814 36.2719C51.0814 35.4125 50.7978 34.7594 50.2306 34.3125C49.6806 33.8657 48.9244 33.6422 47.9619 33.6422C46.9822 33.6422 46.2087 33.8657 45.6415 34.3125C45.0915 34.7594 44.8165 35.4125 44.8165 36.2719Z" fill="#035F54"/>
</svg>
