<svg width="80" height="80" viewBox="0 0 80 80" fill="none" xmlns="http://www.w3.org/2000/svg">
<path d="M0 40C0 10.9091 10.9091 0 40 0C69.0909 0 80 10.9091 80 40C80 69.0909 69.0909 80 40 80C10.9091 80 0 69.0909 0 40Z" fill="#F69021"/>
<path d="M38.7746 39.4367V13.5212H29.1745C25.7644 13.5212 23 16.2857 23 19.6957V39.4367H38.7746Z" fill="white"/>
<path d="M38.7746 41.6902V63.0986H29.1745C25.7644 63.0986 23 60.3342 23 56.9242V41.6902H38.7746Z" fill="white"/>
<path d="M41.8172 41.6902V63.0986H51.4173C54.8274 63.0986 57.5918 60.3342 57.5918 56.9242V41.6902H41.8172Z" fill="white"/>
<path d="M41.8172 39.4367V13.5212H51.4173C54.8274 13.5212 57.5918 16.2857 57.5918 19.6957V39.4367H41.8172Z" fill="white"/>
</svg>
