<svg width="80" height="80" viewBox="0 0 80 80" fill="none" xmlns="http://www.w3.org/2000/svg">
<path d="M0 40C0 10.9091 10.9091 0 40 0C69.0909 0 80 10.9091 80 40C80 69.0909 69.0909 80 40 80C10.9091 80 0 69.0909 0 40Z" fill="#F9511C"/>
<path d="M26.0762 50.7043H55.0506V40.1548C56.1426 39.7744 57.1466 39.1814 58.0035 38.4109C58.8603 37.6403 59.5526 36.7077 60.0397 35.6681C60.5267 34.6286 60.7986 33.503 60.8393 32.3577C60.88 31.2125 60.6886 30.0708 60.2765 28.9999C59.8645 27.9291 59.24 26.9507 58.4399 26.1224C57.6399 25.2942 56.6804 24.6329 55.6181 24.1775C54.5558 23.7221 53.4122 23.4818 52.2546 23.4707C51.097 23.4597 49.9489 23.6782 48.8779 24.1133C48.0785 22.6166 46.8819 21.364 45.4169 20.4904C43.9518 19.6167 42.2739 19.155 40.5636 19.155C38.8532 19.155 37.1753 19.6167 35.7103 20.4904C34.2452 21.364 33.0486 22.6166 32.2492 24.1133C31.1782 23.678 30.03 23.4594 28.8723 23.4703C27.7146 23.4812 26.5708 23.7214 25.5084 24.1768C24.446 24.6322 23.4864 25.2935 22.6862 26.1218C21.8861 26.9501 21.2615 27.9285 20.8494 28.9995C20.4373 30.0705 20.2459 31.2123 20.2866 32.3576C20.3273 33.5029 20.5992 34.6286 21.0864 35.6683C21.5735 36.7079 22.266 37.6405 23.1229 38.4111C23.9799 39.1817 24.9841 39.7746 26.0762 40.155V50.7043Z" fill="white"/>
<path d="M25.915 52.9578V57.1831C25.915 57.5567 26.0694 57.9149 26.3441 58.179C26.6188 58.4432 26.9913 58.5916 27.3798 58.5916H53.746C54.1345 58.5916 54.5071 58.4432 54.7818 58.179C55.0565 57.9149 55.2108 57.5567 55.2108 57.1831V52.9578H25.915Z" fill="white"/>
</svg>
