<svg width="80" height="80" viewBox="0 0 80 80" fill="none" xmlns="http://www.w3.org/2000/svg">
<path d="M0 40C0 10.9091 10.9091 0 40 0C69.0909 0 80 10.9091 80 40C80 69.0909 69.0909 80 40 80C10.9091 80 0 69.0909 0 40Z" fill="#2FCABA"/>
<path fill-rule="evenodd" clip-rule="evenodd" d="M19.6484 21.4082C16.887 21.4082 14.6484 23.6468 14.6484 26.4082V50.211C14.6484 52.9724 16.887 55.211 19.6484 55.211H43.297L60.8456 38.0904V26.4082C60.8456 23.6468 58.607 21.4082 55.8456 21.4082H19.6484Z" fill="white"/>
<path d="M20.2812 43.9437L37.431 28.6995C38.1195 28.0875 39.1507 28.864 38.7527 29.6948L34.0917 39.4257C33.7267 40.1877 34.5837 40.9537 35.3001 40.5058L41.978 36.3308C42.5768 35.9564 43.3432 36.4394 43.2639 37.1412L42.7213 41.9382C42.6372 42.6826 43.4924 43.1594 44.0814 42.6965L47.3235 40.1483" stroke="#218180" stroke-width="3" stroke-linecap="round"/>
<path d="M50.3339 54.0845L48.6462 55.7736C48.5839 55.8365 48.5346 55.9111 48.5011 55.9931C48.4676 56.0751 48.4507 56.1629 48.4512 56.2515V61.2988C48.4512 61.4773 48.522 61.6485 48.6481 61.7747C48.7742 61.9009 48.9453 61.9718 49.1236 61.9718H54.1734C54.2618 61.9723 54.3496 61.9553 54.4315 61.9218C54.5134 61.8883 54.5879 61.839 54.6508 61.7766L56.3385 60.0874L50.3339 54.0845Z" fill="#7AF3E3"/>
<path d="M68.1915 45.808L64.6227 42.2412C64.2674 41.8884 63.7869 41.6904 63.2861 41.6904C62.7853 41.6904 62.3048 41.8884 61.9495 42.2412L50.7041 53.4802L56.9461 59.7186L66.3511 50.319L62.8522 46.8221C62.7177 46.6904 62.641 46.5107 62.639 46.3225C62.6371 46.1343 62.71 45.953 62.8417 45.8185C62.9735 45.684 63.1533 45.6074 63.3417 45.6054C63.53 45.6034 63.7114 45.6763 63.8459 45.808L67.3448 49.3049L68.1915 48.4586C68.5382 48.1045 68.7323 47.6287 68.7323 47.1333C68.7323 46.6379 68.5382 46.1622 68.1915 45.808Z" fill="white"/>
</svg>
