<svg width="80" height="80" viewBox="0 0 80 80" fill="none" xmlns="http://www.w3.org/2000/svg">
<path d="M0 40C0 10.9091 10.9091 0 40 0C69.0909 0 80 10.9091 80 40C80 69.0909 69.0909 80 40 80C10.9091 80 0 69.0909 0 40Z" fill="#FCAE07"/>
<path d="M63.9377 26.8726C62.2091 24.4669 60.1339 22.3559 57.7695 20.5991C57.0715 20.0817 56.072 20.2101 55.5388 20.8884C55.004 21.5666 55.1377 22.5379 55.8357 23.0568C57.9389 24.6195 59.7872 26.4994 61.3293 28.6445C61.8103 29.3136 62.8291 29.5129 63.5444 29.0267C64.2657 28.5372 64.4414 27.5727 63.9377 26.8726Z" fill="white"/>
<path d="M25.2903 23.0567C25.989 22.5371 26.122 21.5666 25.588 20.8883C25.0533 20.2101 24.0561 20.0817 23.3566 20.5991C20.993 22.3566 18.9178 24.4668 17.1884 26.8723C16.6848 27.5724 16.8612 28.5369 17.5817 29.0263C18.2716 29.495 19.2963 29.343 19.7984 28.6442C21.3396 26.5 23.1879 24.6201 25.2903 23.0567Z" fill="white"/>
<path d="M52.7892 25.1374C49.6265 22.9144 45.9612 21.62 42.1089 21.3459V17.7479H43.9066C44.7609 17.7479 45.4522 17.0539 45.4522 16.1979C45.4522 15.3419 44.7609 14.6479 43.9066 14.6479H37.2201C36.3666 14.6479 35.6745 15.3419 35.6745 16.1979C35.6745 17.0539 36.3666 17.7479 37.2201 17.7479H39.0178V21.3459C35.1649 21.6199 31.5003 22.9138 28.3443 25.1328C22.6379 29.1452 19.1553 35.7734 19.1553 42.7561C19.1553 54.5942 28.7586 64.2254 40.5633 64.2254C52.3681 64.2254 61.9722 54.5942 61.9722 42.7561C61.9722 35.7758 58.5075 29.1171 52.7892 25.1374Z" fill="white"/>
</svg>
